<mxfile host="65bd71144e">
    <diagram id="rgT-ICAZ47guq-TTWU-8" name="Asyn JS">
        <mxGraphModel dx="843" dy="1458" grid="1" gridSize="10" guides="1" tooltips="1" connect="1" arrows="1" fold="1" page="1" pageScale="1" pageWidth="1100" pageHeight="850" background="#000000" math="0" shadow="0">
            <root>
                <mxCell id="0"/>
                <mxCell id="1" parent="0"/>
                <mxCell id="4" value="" style="whiteSpace=wrap;html=1;aspect=fixed;strokeColor=#FFFFFF;fillColor=none;sketch=1;curveFitting=1;jiggle=2;" parent="1" vertex="1">
                    <mxGeometry x="30" y="50" width="320" height="320" as="geometry"/>
                </mxCell>
                <mxCell id="5" value="" style="rounded=1;whiteSpace=wrap;html=1;strokeColor=#FFFFFF;fillColor=none;rotation=90;arcSize=0;sketch=1;curveFitting=1;jiggle=2;" parent="1" vertex="1">
                    <mxGeometry x="-27.5" y="182.5" width="255" height="100" as="geometry"/>
                </mxCell>
                <mxCell id="6" value="" style="whiteSpace=wrap;html=1;strokeColor=#FFFFFF;fillColor=none;sketch=1;curveFitting=1;jiggle=2;" parent="1" vertex="1">
                    <mxGeometry x="200" y="110" width="120" height="237.5" as="geometry"/>
                </mxCell>
                <mxCell id="9" value="&lt;font face=&quot;Comic Sans MS&quot;&gt;memory heap&lt;/font&gt;" style="text;html=1;align=center;verticalAlign=middle;resizable=0;points=[];autosize=1;fontFamily=inter;sketch=1;curveFitting=1;jiggle=2;" parent="1" vertex="1">
                    <mxGeometry x="40" y="80" width="100" height="30" as="geometry"/>
                </mxCell>
                <mxCell id="10" value="" style="rounded=1;whiteSpace=wrap;html=1;labelBackgroundColor=#000000;strokeColor=#FFFFFF;fontFamily=Comic Sans MS;fontColor=#000000;fillColor=none;sketch=1;curveFitting=1;jiggle=2;" parent="1" vertex="1">
                    <mxGeometry x="215" y="320" width="90" height="20" as="geometry"/>
                </mxCell>
                <mxCell id="11" value="global" style="text;html=1;align=center;verticalAlign=middle;resizable=0;points=[];autosize=1;fontFamily=Comic Sans MS;sketch=1;curveFitting=1;jiggle=2;" parent="1" vertex="1">
                    <mxGeometry x="227.5" y="315" width="60" height="30" as="geometry"/>
                </mxCell>
                <mxCell id="12" value="" style="rounded=1;whiteSpace=wrap;html=1;labelBackgroundColor=#000000;strokeColor=#FFFFFF;fontFamily=Comic Sans MS;fontColor=#000000;fillColor=none;sketch=1;curveFitting=1;jiggle=2;" parent="1" vertex="1">
                    <mxGeometry x="215" y="295" width="90" height="20" as="geometry"/>
                </mxCell>
                <mxCell id="13" value="" style="rounded=1;whiteSpace=wrap;html=1;labelBackgroundColor=#000000;strokeColor=#FFFFFF;fontFamily=Comic Sans MS;fontColor=#000000;fillColor=none;sketch=1;curveFitting=1;jiggle=2;" parent="1" vertex="1">
                    <mxGeometry x="215" y="270" width="90" height="20" as="geometry"/>
                </mxCell>
                <mxCell id="14" value="" style="rounded=1;whiteSpace=wrap;html=1;labelBackgroundColor=#000000;fontFamily=Comic Sans MS;fillColor=none;sketch=1;curveFitting=1;jiggle=2;" parent="1" vertex="1">
                    <mxGeometry x="215" y="240" width="90" height="20" as="geometry"/>
                </mxCell>
                <mxCell id="16" value="" style="edgeStyle=none;html=1;fontFamily=Comic Sans MS;fontColor=#000000;startArrow=none;sketch=1;curveFitting=1;jiggle=2;" parent="1" source="17" target="14" edge="1">
                    <mxGeometry relative="1" as="geometry"/>
                </mxCell>
                <mxCell id="15" value="fn&lt;span style=&quot;color: rgba(0, 0, 0, 0); font-family: monospace; font-size: 0px; text-align: start;&quot;&gt;%3CmxGraphModel%3E%3Croot%3E%3CmxCell%20id%3D%220%22%2F%3E%3CmxCell%20id%3D%221%22%20parent%3D%220%22%2F%3E%3CmxCell%20id%3D%222%22%20value%3D%22%22%20style%3D%22rounded%3D1%3BwhiteSpace%3Dwrap%3Bhtml%3D1%3BlabelBackgroundColor%3D%23000000%3BstrokeColor%3D%23000000%3BfontFamily%3DComic%20Sans%20MS%3BfontColor%3D%23000000%3BfillColor%3Dnone%3B%22%20vertex%3D%221%22%20parent%3D%221%22%3E%3CmxGeometry%20x%3D%22215%22%20y%3D%22270%22%20width%3D%2290%22%20height%3D%2220%22%20as%3D%22geometry%22%2F%3E%3C%2FmxCell%3E%3C%2Froot%3E%3C%2FmxGraphModel%3E&lt;/span&gt;&lt;span style=&quot;color: rgba(0, 0, 0, 0); font-family: monospace; font-size: 0px; text-align: start;&quot;&gt;%3CmxGraphModel%3E%3Croot%3E%3CmxCell%20id%3D%220%22%2F%3E%3CmxCell%20id%3D%221%22%20parent%3D%220%22%2F%3E%3CmxCell%20id%3D%222%22%20value%3D%22%22%20style%3D%22rounded%3D1%3BwhiteSpace%3Dwrap%3Bhtml%3D1%3BlabelBackgroundColor%3D%23000000%3BstrokeColor%3D%23000000%3BfontFamily%3DComic%20Sans%20MS%3BfontColor%3D%23000000%3BfillColor%3Dnone%3B%22%20vertex%3D%221%22%20parent%3D%221%22%3E%3CmxGeometry%20x%3D%22215%22%20y%3D%22270%22%20width%3D%2290%22%20height%3D%2220%22%20as%3D%22geometry%22%2F%3E%3C%2FmxCell%3E%3C%2Froot%3E%3C%2FmxGraphModel%3E&lt;/span&gt;&lt;span style=&quot;color: rgba(0, 0, 0, 0); font-family: monospace; font-size: 0px; text-align: start;&quot;&gt;%3CmxGraphModel%3E%3Croot%3E%3CmxCell%20id%3D%220%22%2F%3E%3CmxCell%20id%3D%221%22%20parent%3D%220%22%2F%3E%3CmxCell%20id%3D%222%22%20value%3D%22%22%20style%3D%22rounded%3D1%3BwhiteSpace%3Dwrap%3Bhtml%3D1%3BlabelBackgroundColor%3D%23000000%3BstrokeColor%3D%23000000%3BfontFamily%3DComic%20Sans%20MS%3BfontColor%3D%23000000%3BfillColor%3Dnone%3B%22%20vertex%3D%221%22%20parent%3D%221%22%3E%3CmxGeometry%20x%3D%22215%22%20y%3D%22270%22%20width%3D%2290%22%20height%3D%2220%22%20as%3D%22geometry%22%2F%3E%3C%2FmxCell%3E%3C%2Froot%3E%3C%2FmxGraphModel%3E&lt;/span&gt;" style="text;html=1;align=center;verticalAlign=middle;resizable=0;points=[];autosize=1;fontFamily=Comic Sans MS;sketch=1;curveFitting=1;jiggle=2;" parent="1" vertex="1">
                    <mxGeometry x="237.5" y="290" width="40" height="30" as="geometry"/>
                </mxCell>
                <mxCell id="18" value="" style="edgeStyle=none;html=1;fontFamily=Comic Sans MS;fontColor=#000000;endArrow=none;sketch=1;curveFitting=1;jiggle=2;" parent="1" source="15" target="17" edge="1">
                    <mxGeometry relative="1" as="geometry">
                        <mxPoint x="258.18181818181824" y="290" as="sourcePoint"/>
                        <mxPoint x="259.5454545454545" y="260" as="targetPoint"/>
                    </mxGeometry>
                </mxCell>
                <mxCell id="17" value="fn&lt;span style=&quot;color: rgba(0, 0, 0, 0); font-family: monospace; font-size: 0px; text-align: start;&quot;&gt;%3CmxGraphModel%3E%3Croot%3E%3CmxCell%20id%3D%220%22%2F%3E%3CmxCell%20id%3D%221%22%20parent%3D%220%22%2F%3E%3CmxCell%20id%3D%222%22%20value%3D%22%22%20style%3D%22rounded%3D1%3BwhiteSpace%3Dwrap%3Bhtml%3D1%3BlabelBackgroundColor%3D%23000000%3BstrokeColor%3D%23000000%3BfontFamily%3DComic%20Sans%20MS%3BfontColor%3D%23000000%3BfillColor%3Dnone%3B%22%20vertex%3D%221%22%20parent%3D%221%22%3E%3CmxGeometry%20x%3D%22215%22%20y%3D%22270%22%20width%3D%2290%22%20height%3D%2220%22%20as%3D%22geometry%22%2F%3E%3C%2FmxCell%3E%3C%2Froot%3E%3C%2FmxGraphModel%3E&lt;/span&gt;&lt;span style=&quot;color: rgba(0, 0, 0, 0); font-family: monospace; font-size: 0px; text-align: start;&quot;&gt;%3CmxGraphModel%3E%3Croot%3E%3CmxCell%20id%3D%220%22%2F%3E%3CmxCell%20id%3D%221%22%20parent%3D%220%22%2F%3E%3CmxCell%20id%3D%222%22%20value%3D%22%22%20style%3D%22rounded%3D1%3BwhiteSpace%3Dwrap%3Bhtml%3D1%3BlabelBackgroundColor%3D%23000000%3BstrokeColor%3D%23000000%3BfontFamily%3DComic%20Sans%20MS%3BfontColor%3D%23000000%3BfillColor%3Dnone%3B%22%20vertex%3D%221%22%20parent%3D%221%22%3E%3CmxGeometry%20x%3D%22215%22%20y%3D%22270%22%20width%3D%2290%22%20height%3D%2220%22%20as%3D%22geometry%22%2F%3E%3C%2FmxCell%3E%3C%2Froot%3E%3C%2FmxGraphModel%3E&lt;/span&gt;&lt;span style=&quot;color: rgba(0, 0, 0, 0); font-family: monospace; font-size: 0px; text-align: start;&quot;&gt;%3CmxGraphModel%3E%3Croot%3E%3CmxCell%20id%3D%220%22%2F%3E%3CmxCell%20id%3D%221%22%20parent%3D%220%22%2F%3E%3CmxCell%20id%3D%222%22%20value%3D%22%22%20style%3D%22rounded%3D1%3BwhiteSpace%3Dwrap%3Bhtml%3D1%3BlabelBackgroundColor%3D%23000000%3BstrokeColor%3D%23000000%3BfontFamily%3DComic%20Sans%20MS%3BfontColor%3D%23000000%3BfillColor%3Dnone%3B%22%20vertex%3D%221%22%20parent%3D%221%22%3E%3CmxGeometry%20x%3D%22215%22%20y%3D%22270%22%20width%3D%2290%22%20height%3D%2220%22%20as%3D%22geometry%22%2F%3E%3C%2FmxCell%3E%3C%2Froot%3E%3C%2FmxGraphModel%3E&lt;/span&gt;" style="text;html=1;align=center;verticalAlign=middle;resizable=0;points=[];autosize=1;fontFamily=Comic Sans MS;sketch=1;curveFitting=1;jiggle=2;" parent="1" vertex="1">
                    <mxGeometry x="237.5" y="265" width="40" height="30" as="geometry"/>
                </mxCell>
                <mxCell id="19" value="fn&lt;span style=&quot;color: rgba(0, 0, 0, 0); font-family: monospace; font-size: 0px; text-align: start;&quot;&gt;%3CmxGraphModel%3E%3Croot%3E%3CmxCell%20id%3D%220%22%2F%3E%3CmxCell%20id%3D%221%22%20parent%3D%220%22%2F%3E%3CmxCell%20id%3D%222%22%20value%3D%22%22%20style%3D%22rounded%3D1%3BwhiteSpace%3Dwrap%3Bhtml%3D1%3BlabelBackgroundColor%3D%23000000%3BstrokeColor%3D%23000000%3BfontFamily%3DComic%20Sans%20MS%3BfontColor%3D%23000000%3BfillColor%3Dnone%3B%22%20vertex%3D%221%22%20parent%3D%221%22%3E%3CmxGeometry%20x%3D%22215%22%20y%3D%22270%22%20width%3D%2290%22%20height%3D%2220%22%20as%3D%22geometry%22%2F%3E%3C%2FmxCell%3E%3C%2Froot%3E%3C%2FmxGraphModel%3E&lt;/span&gt;&lt;span style=&quot;color: rgba(0, 0, 0, 0); font-family: monospace; font-size: 0px; text-align: start;&quot;&gt;%3CmxGraphModel%3E%3Croot%3E%3CmxCell%20id%3D%220%22%2F%3E%3CmxCell%20id%3D%221%22%20parent%3D%220%22%2F%3E%3CmxCell%20id%3D%222%22%20value%3D%22%22%20style%3D%22rounded%3D1%3BwhiteSpace%3Dwrap%3Bhtml%3D1%3BlabelBackgroundColor%3D%23000000%3BstrokeColor%3D%23000000%3BfontFamily%3DComic%20Sans%20MS%3BfontColor%3D%23000000%3BfillColor%3Dnone%3B%22%20vertex%3D%221%22%20parent%3D%221%22%3E%3CmxGeometry%20x%3D%22215%22%20y%3D%22270%22%20width%3D%2290%22%20height%3D%2220%22%20as%3D%22geometry%22%2F%3E%3C%2FmxCell%3E%3C%2Froot%3E%3C%2FmxGraphModel%3E&lt;/span&gt;&lt;span style=&quot;color: rgba(0, 0, 0, 0); font-family: monospace; font-size: 0px; text-align: start;&quot;&gt;%3CmxGraphModel%3E%3Croot%3E%3CmxCell%20id%3D%220%22%2F%3E%3CmxCell%20id%3D%221%22%20parent%3D%220%22%2F%3E%3CmxCell%20id%3D%222%22%20value%3D%22%22%20style%3D%22rounded%3D1%3BwhiteSpace%3Dwrap%3Bhtml%3D1%3BlabelBackgroundColor%3D%23000000%3BstrokeColor%3D%23000000%3BfontFamily%3DComic%20Sans%20MS%3BfontColor%3D%23000000%3BfillColor%3Dnone%3B%22%20vertex%3D%221%22%20parent%3D%221%22%3E%3CmxGeometry%20x%3D%22215%22%20y%3D%22270%22%20width%3D%2290%22%20height%3D%2220%22%20as%3D%22geometry%22%2F%3E%3C%2FmxCell%3E%3C%2Froot%3E%3C%2FmxGraphModel%3E&lt;/span&gt;" style="text;html=1;align=center;verticalAlign=middle;resizable=0;points=[];autosize=1;fontFamily=Comic Sans MS;sketch=1;curveFitting=1;jiggle=2;" parent="1" vertex="1">
                    <mxGeometry x="237.5" y="235" width="40" height="30" as="geometry"/>
                </mxCell>
                <mxCell id="20" value="Call stack" style="text;html=1;align=center;verticalAlign=middle;resizable=0;points=[];autosize=1;fontFamily=Comic Sans MS;fillColor=none;sketch=1;curveFitting=1;jiggle=2;" parent="1" vertex="1">
                    <mxGeometry x="215" y="80" width="80" height="30" as="geometry"/>
                </mxCell>
                <mxCell id="21" value="" style="whiteSpace=wrap;html=1;aspect=fixed;labelBackgroundColor=#000000;strokeColor=#2D7600;fontFamily=Comic Sans MS;fontColor=#ffffff;fillColor=none;sketch=1;curveFitting=1;jiggle=2;" parent="1" vertex="1">
                    <mxGeometry x="505" y="50" width="260" height="260" as="geometry"/>
                </mxCell>
                <mxCell id="22" value="&lt;font color=&quot;#006600&quot;&gt;web api&lt;/font&gt;" style="text;html=1;align=center;verticalAlign=middle;resizable=0;points=[];autosize=1;strokeColor=none;fillColor=none;fontFamily=Comic Sans MS;fontColor=#000000;sketch=1;curveFitting=1;jiggle=2;" parent="1" vertex="1">
                    <mxGeometry x="490" y="10" width="60" height="30" as="geometry"/>
                </mxCell>
                <mxCell id="23" value="DOM API" style="text;html=1;align=center;verticalAlign=middle;resizable=0;points=[];autosize=1;strokeColor=none;fillColor=none;fontFamily=Comic Sans MS;fontColor=#006600;sketch=1;curveFitting=1;jiggle=2;" parent="1" vertex="1">
                    <mxGeometry x="510" y="50" width="80" height="30" as="geometry"/>
                </mxCell>
                <mxCell id="24" value="Set Timeout" style="text;html=1;align=center;verticalAlign=middle;resizable=0;points=[];autosize=1;strokeColor=none;fillColor=none;fontFamily=Comic Sans MS;fontColor=#006600;sketch=1;curveFitting=1;jiggle=2;" parent="1" vertex="1">
                    <mxGeometry x="505" y="80" width="90" height="30" as="geometry"/>
                </mxCell>
                <mxCell id="25" value="Set interval" style="text;html=1;align=center;verticalAlign=middle;resizable=0;points=[];autosize=1;strokeColor=none;fillColor=none;fontFamily=Comic Sans MS;fontColor=#006600;sketch=1;curveFitting=1;jiggle=2;" parent="1" vertex="1">
                    <mxGeometry x="505" y="110" width="90" height="30" as="geometry"/>
                </mxCell>
                <mxCell id="26" value="fetch" style="text;html=1;align=center;verticalAlign=middle;resizable=0;points=[];autosize=1;strokeColor=#006EAF;fillColor=none;fontFamily=Comic Sans MS;fontColor=#ffffff;sketch=1;curveFitting=1;jiggle=2;" parent="1" vertex="1">
                    <mxGeometry x="525" y="140" width="50" height="30" as="geometry"/>
                </mxCell>
                <mxCell id="27" value="&lt;font color=&quot;#006600&quot;&gt;Register Call Back&lt;/font&gt;" style="whiteSpace=wrap;html=1;fontFamily=Comic Sans MS;fillColor=none;strokeColor=#2D7600;fontColor=#ffffff;labelBackgroundColor=#000000;sketch=1;curveFitting=1;jiggle=2;" parent="1" vertex="1">
                    <mxGeometry x="630" y="205" width="110" height="60" as="geometry"/>
                </mxCell>
                <mxCell id="34" value="" style="edgeStyle=segmentEdgeStyle;endArrow=classic;html=1;curved=0;rounded=0;endSize=8;startSize=8;fontFamily=Comic Sans MS;fontColor=#006600;fillColor=#60a917;strokeColor=#2D7600;sketch=1;curveFitting=1;jiggle=2;" parent="1" source="24" edge="1">
                    <mxGeometry width="50" height="50" relative="1" as="geometry">
                        <mxPoint x="610" y="110" as="sourcePoint"/>
                        <mxPoint x="680" y="220" as="targetPoint"/>
                        <Array as="points">
                            <mxPoint x="680" y="90"/>
                        </Array>
                    </mxGeometry>
                </mxCell>
                <mxCell id="37" value="" style="edgeStyle=segmentEdgeStyle;endArrow=classic;html=1;curved=0;rounded=0;endSize=8;startSize=8;fontFamily=Comic Sans MS;fontColor=#006600;fillColor=#1ba1e2;strokeColor=#006EAF;sketch=1;curveFitting=1;jiggle=2;" parent="1" source="26" edge="1">
                    <mxGeometry width="50" height="50" relative="1" as="geometry">
                        <mxPoint x="540" y="200" as="sourcePoint"/>
                        <mxPoint x="590" y="330" as="targetPoint"/>
                        <Array as="points">
                            <mxPoint x="590" y="150"/>
                        </Array>
                    </mxGeometry>
                </mxCell>
                <mxCell id="38" value="" style="shape=ext;double=1;rounded=1;whiteSpace=wrap;html=1;labelBackgroundColor=#000000;strokeColor=#006EAF;fontFamily=Comic Sans MS;fontColor=#ffffff;fillColor=none;arcSize=0;sketch=1;curveFitting=1;jiggle=2;" parent="1" vertex="1">
                    <mxGeometry x="440" y="330" width="200" height="50" as="geometry"/>
                </mxCell>
                <mxCell id="39" value="CB" style="text;html=1;align=center;verticalAlign=middle;resizable=0;points=[];autosize=1;strokeColor=#006EAF;fillColor=none;fontFamily=Comic Sans MS;fontColor=#ffffff;sketch=1;curveFitting=1;jiggle=2;" parent="1" vertex="1">
                    <mxGeometry x="460" y="340" width="40" height="30" as="geometry"/>
                </mxCell>
                <mxCell id="40" value="CB" style="text;html=1;align=center;verticalAlign=middle;resizable=0;points=[];autosize=1;strokeColor=#006EAF;fillColor=none;fontFamily=Comic Sans MS;fontColor=#ffffff;sketch=1;curveFitting=1;jiggle=2;" parent="1" vertex="1">
                    <mxGeometry x="525" y="340" width="40" height="30" as="geometry"/>
                </mxCell>
                <mxCell id="41" value="" style="shape=ext;double=1;rounded=0;whiteSpace=wrap;html=1;labelBackgroundColor=#000000;strokeColor=default;fontFamily=Comic Sans MS;fontColor=#006600;fillColor=none;sketch=1;curveFitting=1;jiggle=2;" parent="1" vertex="1">
                    <mxGeometry x="410" y="420" width="340" height="80" as="geometry"/>
                </mxCell>
                <mxCell id="42" value="&lt;font color=&quot;#ffffff&quot;&gt;CB&lt;/font&gt;" style="whiteSpace=wrap;html=1;labelBackgroundColor=#000000;strokeColor=default;fontFamily=Comic Sans MS;fontColor=#006600;fillColor=none;sketch=1;curveFitting=1;jiggle=2;" parent="1" vertex="1">
                    <mxGeometry x="430" y="445" width="90" height="30" as="geometry"/>
                </mxCell>
                <mxCell id="43" value="&lt;font color=&quot;#ffffff&quot;&gt;CB&lt;/font&gt;" style="whiteSpace=wrap;html=1;labelBackgroundColor=#000000;strokeColor=default;fontFamily=Comic Sans MS;fontColor=#006600;fillColor=none;sketch=1;curveFitting=1;jiggle=2;" parent="1" vertex="1">
                    <mxGeometry x="535" y="445" width="90" height="30" as="geometry"/>
                </mxCell>
                <mxCell id="44" value="" style="edgeStyle=segmentEdgeStyle;endArrow=classic;html=1;curved=0;rounded=0;endSize=8;startSize=8;fontFamily=Comic Sans MS;fontColor=#006600;fillColor=#60a917;strokeColor=#2D7600;sketch=1;curveFitting=1;jiggle=2;" parent="1" source="27" edge="1">
                    <mxGeometry width="50" height="50" relative="1" as="geometry">
                        <mxPoint x="630" y="310" as="sourcePoint"/>
                        <mxPoint x="715" y="440" as="targetPoint"/>
                        <Array as="points"/>
                    </mxGeometry>
                </mxCell>
                <mxCell id="45" value="TASK QUEUE" style="text;html=1;align=center;verticalAlign=middle;resizable=0;points=[];autosize=1;strokeColor=none;fillColor=none;fontFamily=Comic Sans MS;fontColor=#FFFFFF;sketch=1;curveFitting=1;jiggle=2;" parent="1" vertex="1">
                    <mxGeometry x="440" y="500" width="100" height="30" as="geometry"/>
                </mxCell>
                <mxCell id="46" value="JS Engine" style="text;html=1;align=center;verticalAlign=middle;resizable=0;points=[];autosize=1;strokeColor=none;fillColor=none;fontFamily=Comic Sans MS;fontColor=#FFFFFF;sketch=1;curveFitting=1;jiggle=2;" parent="1" vertex="1">
                    <mxGeometry x="125" y="20" width="80" height="30" as="geometry"/>
                </mxCell>
                <mxCell id="47" value="" style="edgeStyle=segmentEdgeStyle;endArrow=classic;html=1;curved=0;rounded=0;endSize=8;startSize=8;fontFamily=Comic Sans MS;fontColor=#FFFFFF;entryX=0.5;entryY=1;entryDx=0;entryDy=0;exitX=-0.005;exitY=0.348;exitDx=0;exitDy=0;exitPerimeter=0;sketch=1;curveFitting=1;jiggle=2;" parent="1" source="41" target="6" edge="1">
                    <mxGeometry width="50" height="50" relative="1" as="geometry">
                        <mxPoint x="340" y="450" as="sourcePoint"/>
                        <mxPoint x="390" y="400" as="targetPoint"/>
                    </mxGeometry>
                </mxCell>
                <mxCell id="48" value="ADD TO CALL STACK" style="text;html=1;align=center;verticalAlign=middle;resizable=0;points=[];autosize=1;strokeColor=none;fillColor=none;fontFamily=Comic Sans MS;fontColor=#FFFFFF;sketch=1;curveFitting=1;jiggle=2;" parent="1" vertex="1">
                    <mxGeometry x="237.5" y="450" width="150" height="30" as="geometry"/>
                </mxCell>
                <mxCell id="49" value="" style="edgeStyle=segmentEdgeStyle;endArrow=classic;html=1;curved=0;rounded=0;endSize=8;startSize=8;fontFamily=Comic Sans MS;fontColor=#FFFFFF;entryX=0.833;entryY=1;entryDx=0;entryDy=0;entryPerimeter=0;fillColor=#1ba1e2;strokeColor=#006EAF;sketch=1;curveFitting=1;jiggle=2;" parent="1" target="10" edge="1">
                    <mxGeometry width="50" height="50" relative="1" as="geometry">
                        <mxPoint x="430" y="360" as="sourcePoint"/>
                        <mxPoint x="430" y="310" as="targetPoint"/>
                    </mxGeometry>
                </mxCell>
                <mxCell id="51" value="&lt;font style=&quot;font-size: 25px;&quot;&gt;&lt;u&gt;EVENT LOOP&lt;/u&gt;&lt;/font&gt;" style="text;html=1;align=center;verticalAlign=middle;resizable=0;points=[];autosize=1;strokeColor=none;fillColor=none;fontFamily=Comic Sans MS;fontColor=#FFFFFF;sketch=1;curveFitting=1;jiggle=2;" parent="1" vertex="1">
                    <mxGeometry x="345" y="-90" width="180" height="40" as="geometry"/>
                </mxCell>
                <mxCell id="52" value="" style="edgeStyle=segmentEdgeStyle;endArrow=classic;html=1;curved=0;rounded=0;endSize=8;startSize=8;sketch=1;hachureGap=4;jiggle=2;curveFitting=1;fontFamily=Architects Daughter;fontSource=https%3A%2F%2Ffonts.googleapis.com%2Fcss%3Ffamily%3DArchitects%2BDaughter;fontSize=16;exitX=1;exitY=0.5;exitDx=0;exitDy=0;" parent="1" source="14" edge="1">
                    <mxGeometry width="50" height="50" relative="1" as="geometry">
                        <mxPoint x="410" y="340" as="sourcePoint"/>
                        <mxPoint x="500" y="100" as="targetPoint"/>
                        <Array as="points">
                            <mxPoint x="390" y="250"/>
                            <mxPoint x="390" y="100"/>
                        </Array>
                    </mxGeometry>
                </mxCell>
                <mxCell id="53" value="&lt;font color=&quot;#3399ff&quot; face=&quot;Comic Sans MS&quot; style=&quot;font-size: 14px;&quot;&gt;micro task queue / priorty&lt;/font&gt;" style="text;html=1;align=center;verticalAlign=middle;resizable=0;points=[];autosize=1;strokeColor=none;fillColor=none;fontSize=20;fontFamily=Architects Daughter;sketch=1;hachureGap=4;jiggle=2;curveFitting=1;fontSource=https%3A%2F%2Ffonts.googleapis.com%2Fcss%3Ffamily%3DArchitects%2BDaughter;fontColor=#ffffff;" parent="1" vertex="1">
                    <mxGeometry x="445" y="370" width="190" height="40" as="geometry"/>
                </mxCell>
                <mxCell id="55" value="&lt;font style=&quot;font-size: 20px;&quot; color=&quot;#ffffff&quot;&gt;response = fetch(&quot;https.//api.something.com&quot;)&lt;/font&gt;" style="text;html=1;align=center;verticalAlign=middle;resizable=0;points=[];autosize=1;strokeColor=none;fillColor=none;fontSize=14;fontFamily=Comic Sans MS;fontColor=#3399FF;sketch=1;hachureGap=4;jiggle=2;curveFitting=1;fontSource=https%3A%2F%2Ffonts.googleapis.com%2Fcss%3Ffamily%3DArchitects%2BDaughter;" parent="1" vertex="1">
                    <mxGeometry x="60" y="565" width="460" height="40" as="geometry"/>
                </mxCell>
                <mxCell id="58" value="&lt;font style=&quot;font-size: 15px;&quot;&gt;&lt;font color=&quot;#ffff00&quot;&gt;Data : -&lt;br&gt;onfulfiled[ ]&lt;br&gt;onrejection[ ]&lt;/font&gt;&lt;br&gt;&lt;/font&gt;" style="whiteSpace=wrap;html=1;align=left;verticalAlign=middle;treeFolding=1;treeMoving=1;hachureGap=4;fontFamily=Comic Sans MS;fontSize=30;fontColor=#FFFFFF;fillColor=none;strokeColor=none;sketch=1;curveFitting=1;jiggle=2;" parent="1" vertex="1">
                    <mxGeometry x="147.5" y="670" width="130" height="60" as="geometry"/>
                </mxCell>
                <mxCell id="59" value="&lt;font style=&quot;font-size: 15px;&quot;&gt;web browser/node&lt;br&gt;&lt;br&gt;&lt;/font&gt;" style="whiteSpace=wrap;html=1;align=center;verticalAlign=middle;treeFolding=1;treeMoving=1;sketch=1;hachureGap=4;jiggle=2;curveFitting=1;fontFamily=Comic Sans MS;fontSize=30;fontColor=#FFFFFF;fillColor=none;strokeColor=none;" parent="1" vertex="1">
                    <mxGeometry x="430" y="640" width="150" height="110" as="geometry"/>
                </mxCell>
                <mxCell id="60" value="" style="shape=curlyBracket;whiteSpace=wrap;html=1;rounded=1;labelPosition=left;verticalLabelPosition=middle;align=right;verticalAlign=middle;sketch=1;hachureGap=4;jiggle=2;curveFitting=1;fontFamily=Comic Sans MS;fontSize=15;fontColor=#FFFF00;fillColor=none;size=0.2777777777777778;rotation=90;" parent="1" vertex="1">
                    <mxGeometry x="487.5" y="667.5" width="45" height="110" as="geometry"/>
                </mxCell>
                <mxCell id="62" value="" style="verticalLabelPosition=bottom;verticalAlign=top;html=1;shape=mxgraph.basic.tick;sketch=1;hachureGap=4;jiggle=2;curveFitting=1;fontFamily=Comic Sans MS;fontSize=15;fontColor=#FFFF00;fillColor=none;" parent="1" vertex="1">
                    <mxGeometry x="440" y="740" width="40" height="40" as="geometry"/>
                </mxCell>
                <mxCell id="63" value="" style="verticalLabelPosition=bottom;verticalAlign=top;html=1;shape=mxgraph.basic.x;sketch=1;hachureGap=4;jiggle=2;curveFitting=1;fontFamily=Comic Sans MS;fontSize=15;fontColor=#FFFF00;fillColor=none;" parent="1" vertex="1">
                    <mxGeometry x="550" y="745" width="30" height="30" as="geometry"/>
                </mxCell>
                <mxCell id="65" value="" style="endArrow=none;html=1;sketch=1;hachureGap=4;jiggle=2;curveFitting=1;fontFamily=Comic Sans MS;fontSize=15;fontColor=#FFFF00;" parent="1" source="58" edge="1">
                    <mxGeometry width="50" height="50" relative="1" as="geometry">
                        <mxPoint x="390" y="800" as="sourcePoint"/>
                        <mxPoint x="430" y="760" as="targetPoint"/>
                    </mxGeometry>
                </mxCell>
                <mxCell id="66" value="" style="edgeStyle=segmentEdgeStyle;endArrow=classic;html=1;curved=0;rounded=0;endSize=8;startSize=8;sketch=1;hachureGap=4;jiggle=2;curveFitting=1;fontFamily=Comic Sans MS;fontSize=15;fontColor=#FFFF00;exitX=0.5;exitY=0.71;exitDx=0;exitDy=0;exitPerimeter=0;" parent="1" source="63" edge="1">
                    <mxGeometry width="50" height="50" relative="1" as="geometry">
                        <mxPoint x="390" y="800" as="sourcePoint"/>
                        <mxPoint x="200" y="760" as="targetPoint"/>
                        <Array as="points">
                            <mxPoint x="565" y="800"/>
                            <mxPoint x="200" y="800"/>
                        </Array>
                    </mxGeometry>
                </mxCell>
                <mxCell id="67" value="" style="line;strokeWidth=3;direction=south;html=1;perimeter=backbonePerimeter;points=[];outlineConnect=0;sketch=1;hachureGap=4;jiggle=2;curveFitting=1;fontFamily=Comic Sans MS;fontSize=15;fontColor=#FFFF00;fillColor=none;" parent="1" vertex="1">
                    <mxGeometry x="610" y="550" width="5" height="280" as="geometry"/>
                </mxCell>
                <mxCell id="68" value="&lt;font color=&quot;#33ff33&quot;&gt;Global Memory&lt;/font&gt;" style="text;html=1;align=center;verticalAlign=middle;resizable=0;points=[];autosize=1;strokeColor=none;fillColor=none;fontSize=15;fontFamily=Comic Sans MS;fontColor=#FFFF00;sketch=1;hachureGap=4;jiggle=2;curveFitting=1;fontSource=https%3A%2F%2Ffonts.googleapis.com%2Fcss%3Ffamily%3DArchitects%2BDaughter;" parent="1" vertex="1">
                    <mxGeometry x="660" y="565" width="130" height="30" as="geometry"/>
                </mxCell>
                <mxCell id="69" value="Response {&lt;br&gt;&lt;br&gt;&lt;br&gt;&lt;span style=&quot;white-space: pre;&quot;&gt;&#9;&lt;/span&gt;&lt;span style=&quot;white-space: pre;&quot;&gt;&#9;&lt;/span&gt;}" style="text;html=1;align=center;verticalAlign=middle;resizable=0;points=[];autosize=1;strokeColor=none;fillColor=none;fontSize=15;fontFamily=Comic Sans MS;fontColor=#33FF33;sketch=1;hachureGap=4;jiggle=2;curveFitting=1;fontSource=https%3A%2F%2Ffonts.googleapis.com%2Fcss%3Ffamily%3DArchitects%2BDaughter;" parent="1" vertex="1">
                    <mxGeometry x="650" y="595" width="100" height="90" as="geometry"/>
                </mxCell>
                <mxCell id="70" value="" style="edgeStyle=segmentEdgeStyle;endArrow=classic;html=1;curved=0;rounded=0;endSize=8;startSize=8;sketch=1;hachureGap=4;jiggle=2;curveFitting=1;fontFamily=Comic Sans MS;fontSize=15;fontColor=#33FF33;exitX=0.076;exitY=-0.05;exitDx=0;exitDy=0;exitPerimeter=0;" parent="1" edge="1" source="58">
                    <mxGeometry width="50" height="50" relative="1" as="geometry">
                        <mxPoint x="140" y="677.5" as="sourcePoint"/>
                        <mxPoint x="740" y="697.5" as="targetPoint"/>
                        <Array as="points">
                            <mxPoint x="140" y="667"/>
                            <mxPoint x="140" y="668"/>
                            <mxPoint x="85" y="668"/>
                            <mxPoint x="85" y="850"/>
                            <mxPoint x="740" y="850"/>
                        </Array>
                    </mxGeometry>
                </mxCell>
                <mxCell id="74" style="edgeStyle=none;sketch=1;hachureGap=4;jiggle=2;curveFitting=1;html=1;fontFamily=Comic Sans MS;fontSize=100;fontColor=#33FF33;" parent="1" source="72" edge="1">
                    <mxGeometry relative="1" as="geometry">
                        <mxPoint x="430" y="-100" as="targetPoint"/>
                    </mxGeometry>
                </mxCell>
                <mxCell id="72" value="&lt;font style=&quot;font-size: 100px;&quot;&gt;Asyn JavaScript&lt;/font&gt;" style="text;html=1;align=center;verticalAlign=middle;resizable=0;points=[];autosize=1;strokeColor=none;fillColor=none;fontSize=15;fontFamily=Comic Sans MS;fontColor=#33FF33;sketch=1;hachureGap=4;jiggle=2;curveFitting=1;fontSource=https%3A%2F%2Ffonts.googleapis.com%2Fcss%3Ffamily%3DArchitects%2BDaughter;" parent="1" vertex="1">
                    <mxGeometry x="20" y="-780" width="790" height="130" as="geometry"/>
                </mxCell>
            </root>
        </mxGraphModel>
    </diagram>
</mxfile>